<svg xmlns="http://www.w3.org/2000/svg" width="340" height="313" fill="none">
  <mask id="a" width="33" height="33" x="0" y="280" maskUnits="userSpaceOnUse" style="mask-type:alpha">
    <path fill="#fff" fill-rule="evenodd" d="M0 280h32.842v32.763H0V280z" clip-rule="evenodd"/>
  </mask>
  <g mask="url(#a)">
    <path fill="#FF3266" fill-rule="evenodd" d="M29.865 280H2.977A2.974 2.974 0 000 282.97v26.828c0 1.64 1.333 2.97 2.977 2.97h26.888a2.974 2.974 0 002.977-2.97V282.97c0-1.64-1.333-2.97-2.977-2.97z" clip-rule="evenodd"/>
  </g>
  <path fill="#FFFFFE" fill-rule="evenodd" d="M10.976 290.31c1.092 0 2.006-.854 2.006-1.973 0-1.118-.914-1.972-2.006-1.972-1.092 0-2.006.854-2.006 1.972 0 1.119.914 1.973 2.006 1.973zm-4.16 10.562a6.766 6.766 0 00-.177 1.482c0 1.737.944 2.89 2.95 2.89 1.664 0 3.013-.986 3.984-2.577l-.593 2.374h3.304l1.889-7.557c.472-1.913 1.386-2.906 2.773-2.906 1.092 0 1.77.677 1.77 1.795 0 .325-.03.677-.147 1.06l-.974 3.474a5.206 5.206 0 00-.206 1.471c0 1.65.973 2.856 3.009 2.856 1.74 0 3.127-1.118 3.894-3.797l-1.298-.5c-.649 1.794-1.21 2.119-1.652 2.119-.442 0-.679-.294-.679-.883 0-.264.06-.559.148-.913l.944-3.384a7.443 7.443 0 00.325-2.146c0-2.532-1.534-3.853-3.393-3.853-1.74 0-3.511 1.566-4.396 3.215l.649-2.959h-5.045l-.708 2.606h2.36l-1.453 5.806c-1.142 2.532-3.239 2.573-3.502 2.514-.432-.097-.708-.261-.708-.821 0-.323.059-.787.207-1.347l2.213-8.758H6.697l-.708 2.606h2.33l-1.504 6.133z" clip-rule="evenodd"/>
  <path fill="#0ACF83" d="M145 155.205c13.8 0 25-11.588 25-25.867v-25.867h-25c-13.8 0-25 11.588-25 25.867 0 14.279 11.2 25.867 25 25.867z"/>
  <path fill="#A259FF" d="M120 77.598c0-14.279 11.2-25.867 25-25.867h25v51.734h-25c-13.8 0-25-11.589-25-25.867z"/>
  <path fill="#F24E1E" d="M120 25.867C120 11.588 131.2 0 145 0h25v51.734h-25c-13.8 0-25-11.588-25-25.867z"/>
  <path fill="#FF7262" d="M170.001 0h25c13.8 0 25 11.588 25 25.867 0 14.279-11.2 25.867-25 25.867h-25V0z"/>
  <path fill="#1ABCFE" d="M220.001 77.598c0 14.278-11.2 25.867-25 25.867s-25-11.589-25-25.867c0-14.279 11.2-25.867 25-25.867s25 11.588 25 25.867z"/>
  <path fill="#FFAE00" d="M118.068 312.768l-18.18-21.039 7.875-10.63L118.068 280l10.305 1.099 7.876 10.63-18.181 21.039z"/>
  <path fill="#EC6C00" d="M118.068 312.768l-18.18-21.039h36.361l-18.181 21.039z"/>
  <path fill="#FFAE00" d="M118.068 312.768l-10.82-21.039h21.64l-10.82 21.039z"/>
  <path fill="#FFEFB4" d="M118.068 280l-10.82 11.729h21.64L118.068 280z"/>
  <path fill="#FFAE00" d="M107.764 281.099l-4.049 5.351-3.827 5.279h7.434l.442-10.63zm20.609 0l4.048 5.351 3.827 5.279h-7.434l-.441-10.63z"/>
  <path fill="#FED305" d="M107.763 281.099l-.515 10.63L118.068 280l-10.305 1.099zm20.61 0l.515 10.63L118.068 280l10.305 1.099z"/>
  <mask id="b" width="39" height="29" x="196" y="281" maskUnits="userSpaceOnUse" style="mask-type:alpha">
    <path fill="#fff" fill-rule="evenodd" d="M196.66 281.992h37.38v27.965h-37.38v-27.965z" clip-rule="evenodd"/>
  </mask>
  <g mask="url(#b)">
    <path fill="#DA1F26" fill-rule="evenodd" d="M234.04 295.352v1.248l-.012.063a2.205 2.205 0 00-.023.138c-.02.176-.038.353-.057.529v.001c-.038.367-.076.735-.135 1.099a13.445 13.445 0 01-1.832 4.885c-1.402 2.286-3.296 4.029-5.678 5.219a13.138 13.138 0 01-4.379 1.311c-.221.026-.441.05-.661.074h-.003l-.351.039h-13.132l-.064-.014c-.045-.01-.09-.02-.135-.023a11.05 11.05 0 01-3.812-.929c-2.644-1.174-4.615-3.075-5.906-5.693a11.314 11.314 0 01-1.09-3.683l-.082-.694-.028-.241v-1.211l.012-.061a.873.873 0 00.024-.14c.068-1.164.304-2.294.718-3.38 1.115-2.922 3.059-5.09 5.822-6.493 1.433-.728 2.961-1.11 4.559-1.195.783-.041 1.564.003 2.342.109a.295.295 0 00.221-.073 13.87 13.87 0 013.827-2.814 13.266 13.266 0 014.402-1.316c.249-.029.499-.054.748-.08l.342-.035h1.12l.057.009c.054.009.109.018.163.025.176.02.353.039.529.057.379.04.758.079 1.133.143a13.05 13.05 0 014.787 1.843c2.264 1.422 3.99 3.346 5.169 5.769a13.601 13.601 0 011.293 4.446 450.84 450.84 0 01.112 1.068zm-20.901-8.078c.009.011.015.02.019.028.008.011.013.018.019.021a14.89 14.89 0 012.196 1.347c.044.032.152.019.205-.015 1.904-1.224 3.967-1.646 6.184-1.247 2.173.391 3.941 1.492 5.291 3.25 1.529 1.99 2.112 4.241 1.69 6.744-.283 1.678-.945 3.184-2.072 4.445-2.055 2.299-4.628 3.25-7.658 2.847-1.865-.247-3.475-1.063-4.807-2.429-1.086-1.113-2.176-2.22-3.266-3.328l-1.881-1.913c-.229-.233-.483-.42-.812-.461a1.287 1.287 0 00-1.345.744c-.222.467-.193.995.287 1.474 1.016 1.011 2.026 2.027 3.037 3.043.893.898 1.785 1.795 2.681 2.688.326.328.677.631 1.048.906 1.396 1.027 2.969 1.596 4.672 1.825a11.12 11.12 0 003.98-.16c2.511-.572 4.591-1.872 6.23-3.878 1.352-1.658 2.17-3.563 2.456-5.701a11.34 11.34 0 00-.103-3.667c-.38-1.975-1.203-3.743-2.524-5.248-2.518-2.868-5.687-4.149-9.458-3.863-1.451.109-2.823.542-4.114 1.227-.697.368-1.352.81-1.955 1.321zm-1.077 19.881l.155.147-.08.004c-.05.003-.09.006-.13.006h-3.58c-4.274-.004-7.927-2.977-8.864-7.214-1.028-4.65 1.605-9.362 6.104-10.749 3.345-1.032 6.369-.31 8.934 2.116.964.913 1.886 1.872 2.807 2.832.342.355.683.711 1.027 1.064.36.37.445.827.27 1.311-.178.49-.571.729-1.065.8-.382.056-.698-.073-.974-.356-.473-.485-.949-.966-1.425-1.448a169.288 169.288 0 01-2.217-2.267c-.983-1.028-2.18-1.613-3.543-1.86-3.042-.551-6.127 1.236-7.241 4.169-1.413 3.72.813 7.947 4.646 8.827.771.176 1.554.173 2.337.154.211-.005.349.066.498.213.584.573 1.176 1.139 1.768 1.704l.573.547z" clip-rule="evenodd"/>
  </g>
  <path fill="#F89920" fill-rule="evenodd" d="M300.253 302.682l-4.231-4.657 13.068-4.745 1.995 5.468-10.832 3.934z" clip-rule="evenodd"/>
  <path fill="#FFBE22" fill-rule="evenodd" d="M300.222 302.597l-.241 6.28 13.068-4.746-1.995-5.468-10.832 3.934z" clip-rule="evenodd"/>
  <path fill="#F0670A" fill-rule="evenodd" d="M336.535 289.514c1.827 5.287-4.212 12.286-13.557 15.68s-18.48 1.905-20.486-3.317l34.043-12.363z" clip-rule="evenodd"/>
  <path fill="#FFD00E" fill-rule="evenodd" d="M336.535 289.516c-1.993-5.236-11.137-6.732-20.493-3.334-9.355 3.397-15.397 10.408-13.55 15.696l34.043-12.362z" clip-rule="evenodd"/>
  <path fill="#F89920" fill-rule="evenodd" d="M336.534 289.515c1.137 3.538-5.406 9.099-14.722 12.482-9.317 3.384-17.911 3.32-19.319-.12l34.041-12.362z" clip-rule="evenodd"/>
  <path fill="#FFBE22" fill-rule="evenodd" d="M336.534 289.514c-1.386-3.456-9.993-3.525-19.325-.137-9.332 3.389-15.881 8.963-14.717 12.5l34.042-12.363z" clip-rule="evenodd"/>
  <path fill="#F0670A" d="M320.83 284.851c-.889-3.008-1.901-4.678-3.051-4.645-2.224.062-2.972 6.962-2.252 15.804.727 8.936 2.614 15.649 4.966 15.589 1.403-.036 2.193-2.233 2.47-6.045.006-.078-.083-.024-.077-.104 0 0-.012-.139-.065-.142l-.298-.019c-.244 3.702-.985 5.835-2.042 5.862-1.933.05-3.799-6.591-4.498-15.176-.688-8.444.052-15.273 1.809-15.322.831-.023 1.763 1.514 2.587 4.285 0 0 .451-.085.451-.087z"/>
  <path fill="#F0670A" d="M309.809 282.705c-1.894 1.142.984 7.484 6.125 14.789 5.196 7.383 10.259 12.273 12.266 11.07 1.121-.673.806-2.715-.638-5.797a.23.23 0 00-.303-.11.221.221 0 00-.112.297c1.342 2.865 1.631 4.738.814 5.228-1.649.989-6.658-3.849-11.65-10.942-4.91-6.976-7.758-13.252-6.262-14.154.794-.479 2.684.676 5.181 3.173.028.028.188.19.223.2.077.023.038-.138.1-.197a.22.22 0 00.004-.316c-2.668-2.667-4.669-3.892-5.748-3.241z"/>
</svg>
